<svg height="640pt" viewBox="-20 -20 640 640" width="640pt" xmlns="http://www.w3.org/2000/svg"><path d="m560 510v-380c0-27.613281-22.386719-50-50-50h-30v-40c0-5.523438-4.476562-10-10-10s-10 4.476562-10 10v80c0 11.046875-8.953125 20-20 20s-20-8.953125-20-20v-80c0-11.046875 8.953125-20 20-20 5.523438 0 10-4.476562 10-10s-4.476562-10-10-10c-22.089844 0-40 17.910156-40 40v40h-50v-40c0-5.523438-4.476562-10-10-10s-10 4.476562-10 10v80c0 11.046875-8.953125 20-20 20s-20-8.953125-20-20v-80c0-11.046875 8.953125-20 20-20 5.523438 0 10-4.476562 10-10s-4.476562-10-10-10c-22.089844 0-40 17.910156-40 40v40h-50v-40c0-5.523438-4.476562-10-10-10s-10 4.476562-10 10v80c0 11.046875-8.953125 20-20 20s-20-8.953125-20-20v-80c0-11.046875 8.953125-20 20-20 5.523438 0 10-4.476562 10-10s-4.476562-10-10-10c-22.089844 0-40 17.910156-40 40v40h-30c-27.613281 0-50 22.386719-50 50v310h-50c-5.523438 0-10 4.476562-10 10v60c0 27.613281 22.386719 50 50 50h460c27.613281 0 50-22.386719 50-50zm-510 30c-16.566406 0-30-13.433594-30-30v-50h440v50c0 10.820312 3.511719 21.34375 10 30zm150-100h-60v-20h60zm140 0h-60v-20h60zm140 70v-60c0-5.523438-4.476562-10-10-10h-110v-20c0-11.046875-8.953125-20-20-20h-60c-11.046875 0-20 8.953125-20 20v20h-40v-20c0-11.046875-8.953125-20-20-20h-60c-11.046875 0-20 8.953125-20 20v20h-40v-220h260c5.523438 0 10-4.476562 10-10s-4.476562-10-10-10h-260v-70c0-16.566406 13.433594-30 30-30h30v20c0 22.089844 17.910156 40 40 40s40-17.910156 40-40v-20h50v20c0 22.089844 17.910156 40 40 40s40-17.910156 40-40v-20h50v20c0 22.089844 17.910156 40 40 40s40-17.910156 40-40v-20h30c16.566406 0 30 13.433594 30 30v70h-130c-5.523438 0-10 4.476562-10 10s4.476562 10 10 10h130v290c0 16.566406-13.433594 30-30 30s-30-13.433594-30-30zm0 0"/><path d="m340 260h-60c-11.046875 0-20 8.953125-20 20v60c0 11.046875 8.953125 20 20 20h60c11.046875 0 20-8.953125 20-20v-60c0-11.046875-8.953125-20-20-20zm-60 80v-60h60v60zm0 0"/><path d="m200 260h-60c-11.046875 0-20 8.953125-20 20v60c0 11.046875 8.953125 20 20 20h60c11.046875 0 20-8.953125 20-20v-60c0-11.046875-8.953125-20-20-20zm-60 80v-60h60v60zm0 0"/><path d="m480 280c5.523438 0 10-4.476562 10-10s-4.476562-10-10-10h-60c-11.046875 0-20 8.953125-20 20v60c0 11.046875 8.953125 20 20 20h60c5.523438 0 10-4.476562 10-10s-4.476562-10-10-10h-60v-60zm0 0"/><path d="m590 120c-5.523438 0-10 4.476562-10 10v440c0 5.523438-4.476562 10-10 10h-440c-5.523438 0-10 4.476562-10 10s4.476562 10 10 10h440c16.566406 0 30-13.433594 30-30v-440c0-5.523438-4.476562-10-10-10zm0 0"/></svg>