<svg width="21" height="21" viewBox="0 0 21 21" fill="none" xmlns="http://www.w3.org/2000/svg">
<path fill-rule="evenodd" clip-rule="evenodd" d="M6.17616 0.0623535C7.29701 0.0131271 7.65356 0.000656353 10.5059 0.000656353L10.5066 0C13.3589 0 13.7161 0.0124707 14.8403 0.0656353C15.9565 0.114862 16.7195 0.295359 17.3886 0.553962C18.078 0.820441 18.6651 1.18209 19.2475 1.76428C19.8338 2.34712 20.191 2.93324 20.4498 3.63094C20.7085 4.29517 20.889 5.06245 20.9383 6.17825C20.9875 7.29864 21 7.65504 21 10.5062C21 13.3574 20.9875 13.7145 20.9383 14.8342C20.889 15.95 20.7085 16.7127 20.4498 17.3815C20.1832 18.0707 19.8214 18.6568 19.2389 19.2397C18.6565 19.8225 18.0695 20.1835 17.3801 20.45C16.7156 20.7086 15.948 20.8891 14.8317 20.9383C13.7115 20.9875 13.3543 21 10.502 21C7.64962 21 7.29241 20.9875 6.17222 20.9383C5.05597 20.8891 4.29298 20.7086 3.62388 20.45C2.93443 20.1835 2.34741 19.8218 1.76499 19.2397C1.17798 18.6575 0.821431 18.0707 0.550247 17.3776C0.291539 16.7134 0.110969 15.9461 0.0617222 14.8303C0.0124758 13.7099 0 13.3535 0 10.5023C0 7.6511 0.0124758 7.2947 0.0617222 6.17037C0.110969 5.05457 0.291539 4.29189 0.550247 3.62307C0.820774 2.9339 1.17798 2.34777 1.76499 1.76493C2.34741 1.17815 2.93443 0.821097 3.62782 0.55068C4.29232 0.292077 5.05991 0.11158 6.17616 0.0623535ZM14.749 1.95331C13.6452 1.90408 13.313 1.89161 10.5059 1.89161H10.5053C7.6982 1.89161 7.3653 1.90408 6.26152 1.95331C5.23917 1.99859 4.6817 2.17056 4.31202 2.3143C3.82349 2.50727 3.47483 2.7324 3.10515 3.10192C2.74007 3.46751 2.51026 3.81997 2.32115 4.3083C2.17735 4.67782 2.00532 5.23113 1.96001 6.25701C1.91076 7.36099 1.89829 7.69705 1.89829 10.499C1.89829 13.301 1.91076 13.6331 1.96001 14.741C2.00532 15.7623 2.17735 16.3202 2.32115 16.6897C2.5142 17.1774 2.73942 17.5259 3.10909 17.8955C3.47483 18.261 3.82743 18.4901 4.31596 18.6791C4.68564 18.8229 5.23917 18.9948 6.26546 19.0401C7.3699 19.0894 7.70609 19.1018 10.5092 19.1018C13.3123 19.1018 13.6446 19.0894 14.7529 19.0401C15.7746 18.9948 16.3328 18.8229 16.7024 18.6791C17.1903 18.4862 17.539 18.261 17.9086 17.8915C18.2744 17.5266 18.5035 17.1741 18.6926 16.6858C18.8364 16.3163 19.0085 15.763 19.0538 14.7371C19.103 13.6331 19.1155 13.297 19.1155 10.4951C19.1155 7.69311 19.103 7.36099 19.0538 6.25307C19.0085 5.23113 18.8364 4.67389 18.6926 4.30436C18.4996 3.81603 18.2744 3.46751 17.9047 3.09798C17.5396 2.73305 17.187 2.50333 16.6985 2.3143C16.3288 2.17056 15.7753 1.99859 14.749 1.95331Z" fill="black"/>
<path fill-rule="evenodd" clip-rule="evenodd" d="M5 10.5C5 7.46326 7.46393 5 10.5 5C13.5367 5 16 7.46393 16 10.5C16 13.5367 13.5367 16 10.5 16C7.46326 16 5 13.5367 5 10.5ZM6.9326 10.5C6.9326 12.4701 8.52993 14.0674 10.5 14.0674C12.4701 14.0674 14.0674 12.4701 14.0674 10.5C14.0674 8.52993 12.4701 6.9326 10.5 6.9326C8.52993 6.9326 6.9326 8.52993 6.9326 10.5Z" fill="black"/>
<path fill-rule="evenodd" clip-rule="evenodd" d="M17 5C17 5.55237 16.5524 6 16 6C15.4476 6 15 5.55237 15 5C15 4.44763 15.4476 4 16 4C16.5524 4 17 4.44763 17 5Z" fill="black"/>
</svg>
