<svg xmlns="http://www.w3.org/2000/svg" xmlns:xlink="http://www.w3.org/1999/xlink" version="1.1" x="0px" y="0px" viewBox="0 0 512 640" style="enable-background:new 0 0 512 512;" xml:space="preserve"><g><g><g><path d="M254.2,364.7c-64.5,0-112.4-31-158.8-61c-21.8-14.1-44.3-28.6-68-39.5c0,0-0.1,0-0.1-0.1c-1-0.5-2-0.9-3-1.4l-0.4-0.2     c-2.4-1.1-4-3.5-4-6.1s1.6-5.1,4-6.1c25.1-11.1,49.1-26.1,72.3-40.7c47.6-29.8,96.8-60.6,160.1-61.4c0.1,0,0.1,0,0.2,0     c63.3,0.8,112.5,31.6,160.1,61.4c23.2,14.5,47.2,29.6,72.3,40.7c2.4,1.1,4,3.5,4,6.1c0,2.7-1.6,5.1-4,6.1c-1.2,0.5-2.3,1-3.3,1.5     c-0.1,0-0.1,0.1-0.2,0.1c-23.7,10.9-46.2,25.4-68,39.5c-46.9,30.3-95.4,61.7-161,61C255.7,364.7,255,364.7,254.2,364.7     C254.3,364.7,254.3,364.7,254.2,364.7z M42.4,256.5c21.1,10.6,41,23.4,60.3,35.9c46.8,30.3,91,58.8,151.5,58.8c0.7,0,1.4,0,2.2,0     c0.1,0,0.1,0,0.2,0c61.6,0.7,106.3-28.2,153.7-58.8c19.3-12.5,39.2-25.4,60.3-35.9c-21.2-10.5-41.4-23.2-61-35.5     c-48.1-30.1-93.6-58.6-153-59.4c-59.5,0.7-104.9,29.2-153,59.4C83.8,233.3,63.6,246,42.4,256.5z"/></g><g><path d="M256.5,315.5c-32.6,0-59.1-26.5-59.1-59c0-32.6,26.5-59,59.1-59c32.6,0,59.1,26.5,59.1,59     C315.5,289,289,315.5,256.5,315.5z M256.5,210.9c-25.2,0-45.7,20.5-45.7,45.6c0,25.2,20.5,45.6,45.7,45.6     c25.2,0,45.6-20.5,45.6-45.6C302.1,231.3,281.6,210.9,256.5,210.9z"/></g></g></g><text x="0" y="527" fill="#000000" font-size="5px" font-weight="bold" font-family="'Helvetica Neue', Helvetica, Arial-Unicode, Arial, Sans-serif">Created by ibrandify</text><text x="0" y="532" fill="#000000" font-size="5px" font-weight="bold" font-family="'Helvetica Neue', Helvetica, Arial-Unicode, Arial, Sans-serif">from the Noun Project</text></svg>