<svg width="23" height="19" viewBox="0 0 23 19" fill="none" xmlns="http://www.w3.org/2000/svg">
<path fill-rule="evenodd" clip-rule="evenodd" d="M23 2.24703C22.1556 2.63067 21.2437 2.88643 20.2915 3.00042C21.266 2.40633 22.0119 1.46587 22.3662 0.347102C21.4543 0.895158 20.4439 1.29707 19.3703 1.5119C18.5079 0.580208 17.282 0 15.9252 0C13.3203 0 11.209 2.14692 11.209 4.79585C11.209 5.16999 11.2492 5.53536 11.3304 5.88758C7.40964 5.68663 3.93298 3.7772 1.60682 0.873236C1.20224 1.58132 0.969412 2.40779 0.969412 3.28468C0.969412 4.94712 1.80013 6.41737 3.06705 7.27672C2.29454 7.25407 1.5673 7.03484 0.92917 6.67824C0.92917 6.69651 0.92917 6.71916 0.92917 6.73743C0.92917 9.06192 2.5554 11.0035 4.71555 11.4412C4.32031 11.5508 3.9028 11.61 3.47163 11.61C3.16622 11.61 2.87446 11.5779 2.5827 11.5231C3.1849 13.4274 4.92754 14.8158 6.98853 14.8574C5.37165 16.145 3.34156 16.913 1.12751 16.913C0.745923 16.913 0.372961 16.8904 0 16.8443C2.09333 18.2101 4.57183 19 7.23574 19C15.913 19 20.6602 11.6882 20.6602 5.34903C20.6602 5.1393 20.6559 4.93323 20.6465 4.7279C21.5671 4.05634 22.3669 3.21161 23 2.24776V2.24703Z" fill="black"/>
</svg>
