<svg xmlns="http://www.w3.org/2000/svg" data-name="Layer 1" viewBox="0 0 100 125" x="0px" y="0px"><title>104all</title><path d="M17.81,64.9C28.52,74,39.65,78.74,50,78.74S71.48,74,82.19,64.9A88.13,88.13,0,0,0,95.31,51.18L96.17,50l-.86-1.18A88.13,88.13,0,0,0,82.19,35.1C71.48,26,60.35,21.26,50,21.26S28.52,26,17.81,35.1A88.13,88.13,0,0,0,4.69,48.82L3.83,50l.86,1.18A88.13,88.13,0,0,0,17.81,64.9ZM50,25.26c20,0,37.08,19.67,41.16,24.74C87.08,55.07,70,74.74,50,74.74S12.92,55.07,8.84,50C12.91,44.92,30,25.26,50,25.26Z"/><path d="M50,65.12A15.13,15.13,0,1,0,34.47,50,15.35,15.35,0,0,0,50,65.12Zm0-26.24A11.13,11.13,0,1,1,38.47,50,11.35,11.35,0,0,1,50,38.88Z"/><text x="0" y="115" fill="#000000" font-size="5px" font-weight="bold" font-family="'Helvetica Neue', Helvetica, Arial-Unicode, Arial, Sans-serif">Created by Manohara</text><text x="0" y="120" fill="#000000" font-size="5px" font-weight="bold" font-family="'Helvetica Neue', Helvetica, Arial-Unicode, Arial, Sans-serif">from the Noun Project</text></svg>